<?xml version="1.0" encoding="utf-8"?>
<!-- Generator: Adobe Illustrator 25.4.1, SVG Export Plug-In . SVG Version: 6.00 Build 0)  -->
<svg version="1.1" id="Capa_1" xmlns="http://www.w3.org/2000/svg" xmlns:xlink="http://www.w3.org/1999/xlink" x="0px" y="0px"
	 viewBox="0 0 897.69 219.25" style="enable-background:new 0 0 897.69 219.25;" xml:space="preserve">
<style type="text/css">
	.st0{fill:#020203;}
	.st1{fill:#232020;}
</style>
<path class="st0" d="M188.49,109.09c0,93.48-64.7,95.26-99.59,95.26H19.62v-3.31c12.74,0,22.92-5.09,22.92-19.61V40.32
	c0-11.97-5.86-18.85-22.67-18.85v-3.31h83.29c4.84,0,9.68,0.26,14.52,1.02C147.48,23.26,188.49,40.83,188.49,109.09 M156.14,110.87
	c-0.76-20.38-2.8-41.01-12.23-58.84c-6.36-12.23-16.55-21.65-30.05-25.98c-7.64-2.55-16.05-4.58-23.94-4.58
	c-11.72,0-21.14,2.04-21.14,17.06v144.41c0,17.06,7.39,17.83,20.12,17.83c18.59,0,38.21-7.13,50.43-21.65
	C149.77,167.16,157.41,140.42,156.14,110.87"/>
<g>
	<path class="st0" d="M848.88,18.16v3.56c-11.46,0-31.08,8.41-31.08,37.19v145.43h-8.66L698.36,50.77V163.6
		c0,28.78,19.61,37.19,31.07,37.19v3.56h-65.45v-3.56c12.22,0,31.07-7.64,31.07-36.94V46.44l-6.11-8.66c0,0-10.7-15.28-24.2-15.28
		v-4.33h44.82l105.19,142.89V58.66c0-29.29-19.36-36.93-31.58-36.93v-3.56H848.88z"/>
</g>
<g>
	<path class="st0" d="M246.2,182.7V75.4v-6.92V53.09c-0.33-5.88-1.31-12.05-3.88-16.74c-3.17-5.8-12.07-12.51-18.56-16.88
		l-7.36-4.66v3.36l0.03,0.02l-0.03-0.02c3.06,4.59,3.82,8.41,3.82,15.28V182.7c0,15.79-9.17,18.34-19.1,18.34v3.31h64.44v-3.31
		C255.62,201.04,246.2,198.49,246.2,182.7"/>
</g>
<g>
	<path class="st0" d="M631.09,182.7V75.4v-6.92V53.09c-0.33-5.88-1.31-12.05-3.87-16.74c-3.18-5.8-12.08-12.51-18.56-16.88
		l-7.36-4.66v3.36l0.03,0.02l-0.03-0.02c3.05,4.59,3.82,8.41,3.82,15.28V182.7c0,15.79-9.17,18.34-19.1,18.34v3.31h64.44v-3.31
		C640.51,201.04,631.09,198.49,631.09,182.7"/>
</g>
<g>
	<path class="st0" d="M378.11,18.25v3.17c11.47,0,34.9,8.78,21.47,42.7l-39.29,100.55L316.55,55.31c-0.04-0.15-0.08-0.29-0.14-0.44
		c-4.08-10.74-9.81-26.43-18.05-31.98c-9.08-6.12-27.31-7.98-27.31-7.98v3.1h-0.08c4.4,2.93,6.59,6.1,9.03,12.2l68.08,174.24
		l59.05-150.08c5.61-13.18,12.94-32.94,31.73-32.94v-3.17H378.11z"/>
</g>
<g>
	<path class="st0" d="M553.34,177.6c-0.35-0.7-30.41-76.23-49.04-123.07c-2.77-8.26-6.57-20.14-13.89-27.73
		c-10.51-10.9-34.37-11.89-34.37-11.89v3l0.73,0.27c3.32,1.81,5.73,4.72,7.43,7.88l8.66,18.59c1.27,2.29-44.83,117.67-46.61,122
		c-5.86,14.01-13.5,34.38-33.11,34.38v3.31h63.42v-3.31c-11.97,0-36.42-7.89-22.16-43.3l8.66-22.41h65.46l16.81,42.79
		c4.59,13.75-1.78,22.92-15.28,22.92v3.31h64.44v-3.31C564.55,201.04,562.25,197.98,553.34,177.6 M444.33,131.5l31.58-80.23
		l31.33,80.23H444.33z"/>
</g>
<g>
	<polygon class="st1" points="864.71,25.16 860.22,25.16 860.22,37.32 858.38,37.32 858.38,25.16 853.95,25.16 853.95,23.71 
		864.71,23.71 	"/>
</g>
<g>
	<polygon class="st1" points="873.38,34.76 873.44,34.76 877.78,23.71 880.07,23.71 880.07,37.31 878.23,37.31 878.23,27.12 
		878.17,27.11 874.05,37.31 872.77,37.31 868.54,26.78 868.48,26.79 868.48,37.31 866.64,37.31 866.64,23.71 869.06,23.71 	"/>
</g>
</svg>
