<?xml version="1.0" encoding="utf-8"?>
<!-- Generator: Adobe Illustrator 15.0.0, SVG Export Plug-In . SVG Version: 6.00 Build 0)  -->
<!DOCTYPE svg PUBLIC "-//W3C//DTD SVG 1.1//EN" "http://www.w3.org/Graphics/SVG/1.1/DTD/svg11.dtd">
<svg version="1.1" id="Capa_1" xmlns="http://www.w3.org/2000/svg" xmlns:xlink="http://www.w3.org/1999/xlink" x="0px" y="0px"
	 width="858.896px" height="612.288px" viewBox="0 0 858.896 612.288" enable-background="new 0 0 858.896 612.288"
	 xml:space="preserve">
<g>
	<defs>
		<rect id="SVGID_1_" width="858.896" height="612.288"/>
	</defs>
	<clipPath id="SVGID_2_">
		<use xlink:href="#SVGID_1_"  overflow="visible"/>
	</clipPath>
	<path clip-path="url(#SVGID_2_)" d="M175.898,305.897c0,59.652-41.284,60.789-63.551,60.789H68.139v-2.115
		c8.127,0,14.627-3.248,14.627-12.515v-90.042c0-7.639-3.738-12.026-14.466-12.026v-2.114h53.148c3.089,0,6.178,0.163,9.266,0.65
		C149.73,251.124,175.898,262.339,175.898,305.897 M155.255,307.035c-0.486-13.002-1.787-26.167-7.803-37.545
		c-4.061-7.802-10.563-13.815-19.177-16.578c-4.875-1.626-10.24-2.925-15.275-2.925c-7.478,0-13.493,1.299-13.493,10.888v92.154
		c0,10.892,4.714,11.381,12.84,11.381c11.864,0,24.38-4.551,32.182-13.816C151.193,342.955,156.067,325.889,155.255,307.035"/>
	<path clip-path="url(#SVGID_2_)" d="M759.312,247.874v2.276c-7.314,0-19.83,5.363-19.83,23.729v92.807h-5.525l-70.699-98.007
		v72.003c0,18.363,12.514,23.729,19.825,23.729v2.275h-41.767v-2.275c7.799,0,19.826-4.876,19.826-23.569v-74.925l-3.899-5.527
		c0,0-6.828-9.752-15.44-9.752v-2.763h28.604l67.126,91.182v-65.34c0-18.691-12.354-23.566-20.152-23.566v-2.276H759.312z"/>
	<path clip-path="url(#SVGID_2_)" d="M247.778,352.87v-68.471v-4.417v-9.819c-0.213-3.755-0.837-7.691-2.476-10.682
		c-2.026-3.7-7.705-7.984-11.844-10.774l-4.697-2.975v2.14l0.02,0.014l-0.02-0.013c1.952,2.926,2.439,5.364,2.439,9.752v95.245
		c0,10.077-5.851,11.7-12.19,11.7v2.115h41.122v-2.115C253.792,364.57,247.778,362.947,247.778,352.87"/>
	<path clip-path="url(#SVGID_2_)" d="M590.967,352.87v-68.471v-4.417v-9.819c-0.211-3.755-0.835-7.691-2.473-10.682
		c-2.029-3.7-7.706-7.984-11.847-10.774l-4.694-2.975v2.14l0.018,0.014l-0.018-0.013c1.948,2.926,2.437,5.364,2.437,9.752v95.245
		c0,10.077-5.85,11.7-12.189,11.7v2.115h41.12v-2.115C596.981,364.57,590.967,362.947,590.967,352.87"/>
	<path clip-path="url(#SVGID_2_)" d="M362.448,247.929v2.025c7.318,0,22.269,5.607,13.703,27.251l-25.07,64.161l-27.916-69.787
		c-0.028-0.094-0.053-0.189-0.089-0.284c-2.605-6.854-6.259-16.864-11.516-20.407c-5.797-3.906-17.425-5.094-17.425-5.094v1.979
		h-0.05c2.804,1.868,4.203,3.892,5.761,7.787l43.447,111.186l37.684-95.77c3.582-8.409,8.254-21.023,20.245-21.023v-2.025H362.448z"
		/>
	<path clip-path="url(#SVGID_2_)" d="M509.577,349.617c-0.224-0.445-19.402-48.649-31.291-78.538
		c-1.767-5.271-4.193-12.853-8.864-17.695c-6.705-6.953-21.934-7.59-21.934-7.59v1.917l0.465,0.169
		c2.117,1.155,3.653,3.015,4.738,5.032l5.528,11.865c0.812,1.463-28.607,75.09-29.744,77.854
		c-3.739,8.938-8.615,21.939-21.131,21.939v2.115h40.471v-2.115c-7.638,0-23.242-5.036-14.139-27.629l5.524-14.303h41.771
		l10.726,27.305c2.927,8.776-1.137,14.627-9.752,14.627v2.115h41.122v-2.115C516.729,364.57,515.266,362.623,509.577,349.617
		 M440.015,320.199l20.155-51.196l19.989,51.196H440.015z"/>
	<polygon clip-path="url(#SVGID_2_)" fill="#272525" points="778.657,249.107 774.838,249.107 774.838,259.457 773.271,259.457 
		773.271,249.107 769.5,249.107 769.5,247.874 778.657,247.874 	"/>
	<polygon clip-path="url(#SVGID_2_)" fill="#272525" points="786.047,257.284 786.095,257.284 789.794,247.873 791.742,247.873 
		791.742,259.456 790.176,259.456 790.176,250.777 790.128,250.769 786.62,259.456 785.529,259.456 781.918,250.483 781.87,250.491 
		781.87,259.456 780.304,259.456 780.304,247.873 782.364,247.873 	"/>
</g>
</svg>
